<svg xmlns="http://www.w3.org/2000/svg" width="430" height="932" viewBox="0 0 430 932">
  <defs>
    <linearGradient id="bg" x1="0" y1="0" x2="0" y2="1">
      <stop offset="0" stop-color="#071217"/>
      <stop offset="1" stop-color="#04090d"/>
    </linearGradient>
    <linearGradient id="glass" x1="0" y1="0" x2="1" y2="1">
      <stop offset="0" stop-color="#263943" stop-opacity=".64"/>
      <stop offset="1" stop-color="#08141c" stop-opacity=".74"/>
    </linearGradient>
    <filter id="shadow" x="-20%" y="-20%" width="140%" height="160%">
      <feDropShadow dx="0" dy="18" stdDeviation="18" flood-color="#000" flood-opacity=".34"/>
    </filter>
    <clipPath id="phoneClip">
      <rect x="18" y="18" width="394" height="896" rx="42"/>
    </clipPath>
    <clipPath id="photo1">
      <rect x="44" y="348" width="167" height="158" rx="0"/>
    </clipPath>
    <clipPath id="photo2">
      <rect x="213" y="348" width="167" height="158" rx="0"/>
    </clipPath>
    <clipPath id="photo3">
      <rect x="44" y="665" width="167" height="128" rx="0"/>
    </clipPath>
    <clipPath id="photo4">
      <rect x="213" y="665" width="167" height="128" rx="0"/>
    </clipPath>
  </defs>

  <rect width="430" height="932" fill="#d7dddd"/>
  <rect x="18" y="18" width="394" height="896" rx="42" fill="#05090d" filter="url(#shadow)"/>

  <g clip-path="url(#phoneClip)">
    <rect x="18" y="18" width="394" height="896" fill="url(#bg)"/>
    <circle cx="86" cy="44" r="118" fill="#8ff3f4" opacity=".08"/>
    <circle cx="375" cy="785" r="135" fill="#079aa3" opacity=".12"/>

    <rect x="18" y="18" width="394" height="52" fill="#08141c" opacity=".9"/>
    <rect x="36" y="31" width="38" height="38" rx="13" fill="#142530" stroke="#29535a"/>
    <line x1="48" y1="43" x2="62" y2="43" stroke="#eefafa" stroke-width="2" stroke-linecap="round"/>
    <line x1="48" y1="50" x2="62" y2="50" stroke="#eefafa" stroke-width="2" stroke-linecap="round"/>
    <line x1="48" y1="57" x2="62" y2="57" stroke="#eefafa" stroke-width="2" stroke-linecap="round"/>
    <text x="173" y="55" text-anchor="middle" font-family="Arial Black, Arial" font-size="22" font-weight="900" fill="#fff">TeCai</text>
    <text x="221" y="55" text-anchor="middle" font-family="Arial Black, Arial" font-size="22" font-weight="900" fill="#079aa3">GO</text>
    <rect x="356" y="31" width="38" height="38" rx="13" fill="#142530" stroke="#29535a"/>
    <text x="375" y="58" text-anchor="middle" font-family="Arial" font-size="28" font-weight="700" fill="#eefafa">+</text>

    <g transform="translate(34 86)">
      <g>
        <circle cx="21" cy="21" r="20" fill="#1b3136" stroke="#ffffff" stroke-opacity=".72" stroke-width="2"/>
        <rect x="2" y="2" width="38" height="38" rx="19" fill="#47635f"/>
        <text x="21" y="62" text-anchor="middle" font-family="Arial" font-size="10" font-weight="800" fill="#dbe6e7">Todos</text>
      </g>
      <g transform="translate(56)">
        <circle cx="21" cy="21" r="20" fill="#0b7580" stroke="#8ff3f4" stroke-width="2"/>
        <circle cx="21" cy="21" r="28" fill="none" stroke="#8ff3f4" stroke-opacity=".12" stroke-width="8"/>
        <path d="M3 28 C13 20 19 23 28 16 C35 11 39 14 42 16 L42 42 L3 42Z" fill="#e0d6a3"/>
        <path d="M0 25 C12 28 24 18 43 23 L43 42 L0 42Z" fill="#2ca9b2"/>
        <text x="21" y="62" text-anchor="middle" font-family="Arial" font-size="10" font-weight="900" fill="#fff">Playa</text>
      </g>
      <g transform="translate(112)">
        <circle cx="21" cy="21" r="20" fill="#53695f" stroke="#ffffff" stroke-opacity=".72" stroke-width="2"/>
        <path d="M2 36 L18 14 L27 27 L34 18 L42 36Z" fill="#a9c8b5"/>
        <text x="21" y="62" text-anchor="middle" font-family="Arial" font-size="10" font-weight="800" fill="#dbe6e7">Montana</text>
      </g>
      <g transform="translate(168)">
        <circle cx="21" cy="21" r="20" fill="#82715c" stroke="#ffffff" stroke-opacity=".72" stroke-width="2"/>
        <rect x="8" y="18" width="26" height="16" rx="2" fill="#d8b784"/>
        <path d="M6 18 L21 8 L36 18Z" fill="#f1d39b"/>
        <text x="21" y="62" text-anchor="middle" font-family="Arial" font-size="10" font-weight="800" fill="#dbe6e7">Pueblos</text>
      </g>
      <g transform="translate(224)">
        <circle cx="21" cy="21" r="20" fill="#5d735d" stroke="#ffffff" stroke-opacity=".72" stroke-width="2"/>
        <path d="M8 35 C17 25 20 25 30 7" stroke="#d8f0d3" stroke-width="5" stroke-linecap="round" fill="none"/>
        <text x="21" y="62" text-anchor="middle" font-family="Arial" font-size="10" font-weight="800" fill="#dbe6e7">Caminos</text>
      </g>
      <g transform="translate(280)">
        <circle cx="21" cy="21" r="20" fill="#245c78" stroke="#ffffff" stroke-opacity=".72" stroke-width="2"/>
        <path d="M2 28 C13 23 25 34 42 27 L42 42 L2 42Z" fill="#6fc1d7"/>
        <text x="21" y="62" text-anchor="middle" font-family="Arial" font-size="10" font-weight="800" fill="#dbe6e7">Lagos</text>
      </g>
    </g>

    <g transform="translate(30 164)">
      <rect x="0" y="0" width="188" height="70" rx="15" fill="#ffffff" opacity=".06" stroke="#ffffff" stroke-opacity=".08"/>
      <text x="12" y="23" font-family="Arial" font-size="12" font-weight="900" fill="#fff">Ruta Panoramica</text>
      <text x="12" y="40" font-family="Arial" font-size="9" font-weight="700" fill="#fff" opacity=".58">Ruta de las Flores - 25 mayo</text>
      <rect x="119" y="45" width="55" height="18" rx="9" fill="#d9f3f4"/>
      <text x="146.5" y="58" text-anchor="middle" font-family="Arial" font-size="10" font-weight="900" fill="#00636a">9 cupos</text>
      <rect x="198" y="0" width="188" height="70" rx="15" fill="#ffffff" opacity=".06" stroke="#ffffff" stroke-opacity=".08"/>
      <text x="210" y="23" font-family="Arial" font-size="12" font-weight="900" fill="#fff">Surf City Weekend</text>
      <text x="210" y="40" font-family="Arial" font-size="9" font-weight="700" fill="#fff" opacity=".58">Playa - transporte incluido</text>
    </g>

    <rect x="30" y="250" width="370" height="54" rx="16" fill="url(#glass)" stroke="#ffffff" stroke-opacity=".08"/>
    <circle cx="56" cy="277" r="16" fill="#00636a"/>
    <text x="56" y="281" text-anchor="middle" font-family="Arial" font-size="11" font-weight="900" fill="#fff">TC</text>
    <rect x="82" y="259" width="300" height="36" rx="18" fill="#ffffff" opacity=".04" stroke="#ffffff" stroke-opacity=".1"/>
    <text x="98" y="281" font-family="Arial" font-size="11" fill="#cfdada" opacity=".78">Comparte un lugar con potencial turistico</text>

    <text x="32" y="327" font-family="Arial" font-size="16" font-weight="900" fill="#f7f8fb">Publicaciones</text>

    <g>
      <rect x="30" y="334" width="370" height="292" rx="16" fill="url(#glass)" stroke="#ffffff" stroke-opacity=".08"/>
      <circle cx="56" cy="360" r="16" fill="#777"/>
      <text x="56" y="364" text-anchor="middle" font-family="Arial" font-size="11" font-weight="900" fill="#fff">PD</text>
      <text x="82" y="358" font-family="Arial" font-size="13" font-weight="900" fill="#fff">Playa Dorada</text>
      <text x="82" y="374" font-family="Arial" font-size="10" font-weight="700" fill="#fff" opacity=".58">Nuevo lugar turistico frente al malecon</text>
      <text x="44" y="402" font-family="Arial" font-size="12" fill="#fff" opacity=".78">Espacio frente al mar con parqueo, comida local y acceso</text>
      <text x="44" y="418" font-family="Arial" font-size="12" fill="#fff" opacity=".78">rapido para grupos familiares de fin de semana.</text>
      <g clip-path="url(#photo1)">
        <rect x="44" y="348" width="167" height="158" fill="#e1c67f"/>
        <path d="M44 446 C85 421 122 449 168 424 C188 413 203 414 211 418 L211 506 L44 506Z" fill="#079aa3"/>
        <path d="M44 474 C92 455 142 473 211 454 L211 506 L44 506Z" fill="#5cb8c1"/>
      </g>
      <g clip-path="url(#photo2)">
        <rect x="213" y="348" width="167" height="158" fill="#86c8cf"/>
        <circle cx="340" cy="379" r="26" fill="#f8dc8d"/>
        <path d="M213 449 C255 423 280 458 319 428 C347 407 368 412 380 422 L380 506 L213 506Z" fill="#e6d3a0"/>
        <path d="M213 470 C256 455 310 474 380 452 L380 506 L213 506Z" fill="#0d8d99"/>
      </g>
      <text x="44" y="528" font-family="Arial" font-size="11" font-weight="700" fill="#fff" opacity=".62">45 interesados</text>
      <text x="326" y="528" text-anchor="end" font-family="Arial" font-size="11" font-weight="700" fill="#fff" opacity=".62">6 comentarios</text>
      <g font-family="Arial" font-size="9" font-weight="800" fill="#fff" opacity=".78">
        <rect x="38" y="544" width="82" height="30" rx="10" fill="#ffffff" opacity=".04"/>
        <text x="79" y="563" text-anchor="middle">Me interesa</text>
        <rect x="125" y="544" width="82" height="30" rx="10" fill="#ffffff" opacity=".04"/>
        <text x="166" y="563" text-anchor="middle">Comentar</text>
        <rect x="212" y="544" width="82" height="30" rx="10" fill="#ffffff" opacity=".04"/>
        <text x="253" y="563" text-anchor="middle">Compartir</text>
        <rect x="299" y="544" width="82" height="30" rx="10" fill="#ffffff" opacity=".04"/>
        <text x="340" y="563" text-anchor="middle">Crear</text>
      </g>
    </g>

    <g opacity=".86">
      <rect x="30" y="641" width="370" height="230" rx="16" fill="url(#glass)" stroke="#ffffff" stroke-opacity=".08"/>
      <circle cx="56" cy="667" r="16" fill="#079aa3"/>
      <text x="56" y="671" text-anchor="middle" font-family="Arial" font-size="11" font-weight="900" fill="#fff">OL</text>
      <text x="82" y="665" font-family="Arial" font-size="13" font-weight="900" fill="#fff">Operador Lago Tours</text>
      <text x="82" y="681" font-family="Arial" font-size="10" font-weight="700" fill="#fff" opacity=".58">Operador turistico</text>
      <g clip-path="url(#photo3)">
        <rect x="44" y="665" width="167" height="128" fill="#9fd1d9"/>
        <path d="M44 741 C82 713 124 746 166 718 C190 704 204 710 211 716 L211 793 L44 793Z" fill="#446f61"/>
        <path d="M44 763 C97 748 147 768 211 748 L211 793 L44 793Z" fill="#4aa4b1"/>
      </g>
      <g clip-path="url(#photo4)">
        <rect x="213" y="665" width="167" height="128" fill="#b8d4d6"/>
        <path d="M213 740 C249 710 283 744 318 718 C350 694 372 708 380 716 L380 793 L213 793Z" fill="#6f8063"/>
        <path d="M213 762 C257 748 318 767 380 746 L380 793 L213 793Z" fill="#377e89"/>
      </g>
    </g>

    <rect x="18" y="842" width="394" height="72" fill="#071217"/>
    <g font-family="Arial" font-size="11" font-weight="800">
      <g transform="translate(60 862)">
        <circle cx="0" cy="0" r="15" fill="#079aa3" opacity=".22"/>
        <text x="0" y="36" text-anchor="middle" fill="#fff">Home</text>
      </g>
      <text x="164" y="898" text-anchor="middle" fill="#fff" opacity=".62">Crear</text>
      <text x="268" y="898" text-anchor="middle" fill="#fff" opacity=".62">Solicitudes</text>
      <text x="360" y="898" text-anchor="middle" fill="#fff" opacity=".62">Mas</text>
    </g>
  </g>

  <rect x="168" y="28" width="94" height="20" rx="10" fill="#05090d"/>
</svg>
